PathFileType	3	(X/Y/Z)	D:\VICON_DB\Goncalves\Pilot01\09-03-2026\walking_01.trc
DataRate	CameraRate	NumFrames	NumMarkers	Units	OrigDataRate	OrigDataStartFrame	OrigNumFrames
200.0	200.0	10	34	mm	200.0	905	1809	
Frame#	Time	LASI			RASI			LPSI			RPSI			LTHI			LTHAP			LTHAD			LKNE			LKNM			LTIB			LTIAP			LTIAD			LANK			LMED			LHEE			LTOE			LFMH			LSMH			LVMH			RTHI			RTHAP			RTHAD			RKNE			RKNM			RTIB			RTIAP			RTIAD			RANK			RMED			RHEE			RTOE			RFMH			RSMH			RVMH			
		X1	Y1	Z1	X2	Y2	Z2	X3	Y3	Z3	X4	Y4	Z4	X5	Y5	Z5	X6	Y6	Z6	X7	Y7	Z7	X8	Y8	Z8	X9	Y9	Z9	X10	Y10	Z10	X11	Y11	Z11	X12	Y12	Z12	X13	Y13	Z13	X14	Y14	Z14	X15	Y15	Z15	X16	Y16	Z16	X17	Y17	Z17	X18	Y18	Z18	X19	Y19	Z19	X20	Y20	Z20	X21	Y21	Z21	X22	Y22	Z22	X23	Y23	Z23	X24	Y24	Z24	X25	Y25	Z25	X26	Y26	Z26	X27	Y27	Z27	X28	Y28	Z28	X29	Y29	Z29	X30	Y30	Z30	X31	Y31	Z31	X32	Y32	Z32	X33	Y33	Z33	X34	Y34	Z34	
905	4.52	94.06076	855.68488	-422.01669	354.19879	878.30682	-429.2912				259.2562	911.03748	-230.3156	78.977654	641.39331	-407.10791	63.865997	713.86914	-390.95667	64.490204	576.37567	-360.85306	84.819092	422.20251	-309.52679				82.431046	296.75186	-153.43839	129.68388	310.47134	-254.77112	111.20252	251.11545	-164.6335	120.42921	174.6378	11.227639				173.38643	213.45267	36.920315	151.55756	108.14995	-31.178324	192.53864	54.779003	-28.421318				115.33908	42.141724	-6.1485758	386.36935	623.96155	-481.35901	373.34869	753.49097	-467.08496	340.39471	677.53925	-511.10876	353.57919	486.05307	-486.52048				355.05029	288.86774	-501.87897	303.29254	347.66898	-533.40515	298.73944	265.62848	-534.90485	310.92749	56.823566	-476.57895				271.74451	55.673676	-436.99957	289.97998	66.952446	-565.70624	260.24786	49.641624	-614.99451				334.62369	18.824682	-604.00464
906	4.525	94.848259	856.13959	-428.28937	354.91626	879.16022	-435.33575				259.73981	911.65503	-236.60979	79.411667	642.19153	-415.72	64.442459	714.39978	-398.51685	64.623817	576.62756	-370.39008	84.813271	421.89709	-321.3609				82.56385	298.5412	-164.18411	129.45384	310.64923	-266.15051	111.16822	252.76965	-174.94528	121.05172	178.98973	1.8807052				174.40715	218.33339	26.058706	151.6969	110.81274	-38.651241	192.51718	57.024529	-34.237034				115.42682	45.293278	-11.122637	387.06738	623.99445	-486.09695	374.26114	753.78967	-472.69955	341.30725	677.39386	-516.36945	354.17734	486.05466	-490.38922				355.33694	288.63782	-504.1619	303.57559	347.21301	-536.0719	298.88141	265.15085	-536.74542	311.06827	56.855434	-476.60318				271.86487	55.760265	-437.01477	289.99738	66.880829	-565.76666	260.21243	49.528736	-615.02905				334.70898	18.757793	-604.11371
907	4.53	95.582428	856.612	-434.49878	355.60373	879.98181	-441.33054				260.20816	912.31415	-242.83862	79.840637	643.08368	-424.319	64.986603	714.99469	-406.02448	64.737831	576.97522	-379.96396	84.810661	421.70386	-333.29886				82.733612	300.32346	-175.17381	129.30498	310.93515	-277.70377	111.22117	254.44728	-185.51027	121.72687	183.26962	-7.8081112				175.47612	223.02782	14.967855	151.86472	113.58875	-46.612228	192.46292	59.391415	-40.75547				115.47243	48.60651	-16.817739	387.7489	624.00256	-490.69986	375.12207	754.04395	-478.2095	342.16864	677.19928	-521.48914	354.78653	486.02606	-494.09589				355.63498	288.39017	-506.3197	303.87076	346.7504	-538.58972	299.03506	264.67505	-538.47351	311.22058	56.884266	-476.61081				271.98392	55.841278	-437.02261	290.0343	66.825958	-565.80548	260.19827	49.450787	-615.04572				334.79245	18.711603	-604.1969
908	4.535	96.264236	857.10339	-440.65005	356.25858	880.77734	-447.27609				260.66071	913.01788	-248.99966	80.275291	644.07452	-432.90216	65.503235	715.65759	-413.47958	64.836327	577.42706	-389.57312	84.811371	421.63342	-345.32654				82.94442	302.09503	-186.39243	129.24106	311.33109	-289.4166	111.36227	256.14133	-196.31654	122.45258	187.45029	-17.821692				176.59183	227.50587	3.6978092	152.06305	116.45434	-55.084763	192.37613	61.850506	-48.013435				115.47714	52.033833	-23.291323	388.41995	623.99164	-495.16891	375.9314	754.26038	-483.61118	342.98621	676.96564	-526.46674	355.40756	485.97235	-497.64142				355.9469	288.12817	-508.3558	304.18326	346.28641	-540.96741	299.20657	264.20352	-540.09766	311.3801	56.910557	-476.60672				272.0993	55.919624	-437.02716	290.08923	66.782288	-565.82806	260.20428	49.398491	-615.04999				334.87589	18.678392	-604.25806
909	4.54	96.895935	857.61615	-446.74786	356.87888	881.55298	-453.17313				261.09683	913.76794	-255.09143	80.725517	645.16833	-441.46796	65.997353	716.39197	-420.88333	64.923035	577.99103	-399.21631	84.815727	421.6954	-357.42935				83.198914	303.85181	-197.82355	129.26311	311.8378	-301.27524	111.59039	257.84424	-207.35155	123.22552	191.50293	-28.143606				177.75092	231.73822	-7.7043953	152.2952	119.3822	-64.088501	192.26193	64.370918	-56.039627				115.44556	55.523678	-30.5966	389.08624	623.96619	-499.50537	376.69095	754.4455	-488.90262	343.76974	676.70251	-531.30432	356.04059	485.89841	-501.02692				356.27448	287.85574	-510.27234	304.51837	345.82584	-543.21405	299.40222	263.73856	-541.62665	311.54285	56.935196	-476.59482				272.2088	55.997669	-437.03149	290.16025	66.745514	-565.83917	260.22879	49.364281	-615.04645				334.9606	18.652275	-604.30096
910	4.545	97.480911	858.1532	-452.79718	357.46326	882.31494	-459.02283				261.51596	914.56525	-261.11365	81.199883	646.36987	-450.01599	66.473793	717.20148	-428.23801	65.001472	578.67413	-408.89175	84.824455	421.89813	-369.59222				83.498016	305.58948	-209.44983	129.36928	312.45435	-313.26666	111.90244	259.54797	-218.60245	124.04092	195.39685	-38.759003				178.94691	235.69713	-19.199104	152.56488	122.34127	-73.637306	192.13029	66.920242	-64.851807				115.38554	59.022545	-38.777855	389.75232	623.92981	-503.71021	377.40466	754.60571	-494.08368	344.53088	676.41827	-536.00769	356.685	485.80872	-504.25381				356.61905	287.5769	-512.07025	304.88174	345.37259	-545.33771	299.6279	263.28247	-543.0686	311.70584	56.959473	-476.57828				272.31042	56.077286	-437.03833	290.24509	66.712433	-565.84296	260.26962	49.342102	-615.039				335.04755	18.628897	-604.32904
911	4.55	98.023483	858.71863	-458.80295	358.01132	883.06903	-464.82678				261.91763	915.40973	-267.06729	81.705109	647.68311	-458.54636	66.936928	718.08875	-435.54691	65.075081	579.48242	-418.59735	84.839066	422.24823	-381.79974				83.841248	307.30304	-221.25323	129.55525	313.17902	-325.37891	112.29335	261.24405	-230.05659	124.89237	199.09973	-49.6553				180.16977	239.35693	-30.757732	152.87535	125.29692	-83.737511	191.9951	69.465057	-74.454857				115.30783	62.476902	-47.86499	390.42139	623.88477	-507.78448	378.07825	754.74646	-499.15607	345.28217	676.12012	-540.58551	357.33945	485.70761	-507.32361				356.98138	287.29568	-513.74945	305.27866	344.9295	-547.3465	299.88904	262.83746	-544.4314	311.86685	56.984787	-476.55945				272.4024	56.159935	-437.04956	290.34155	66.680885	-565.84271	260.32434	49.327267	-615.03088				335.13702	18.605148	-604.34552
912	4.555	98.528618	859.31647	-464.77005	358.52356	883.82043	-470.58701				262.30164	916.29962	-272.9548	82.245796	649.11157	-467.05988	67.390671	719.05615	-442.81415	65.147285	580.42029	-428.32959	84.861908	422.75101	-394.0365				84.227219	308.98709	-233.2159	129.8147	314.00931	-337.60101	112.75593	262.92319	-241.70248	125.77187	202.57768	-60.82235				181.40591	242.69415	-42.364674	153.22879	128.21138	-94.386818	191.87221	71.971336	-84.840225				115.22499	65.834991	-57.868332	391.09491	623.8324	-511.73019	378.71924	754.87225	-504.12344	346.03647	675.81317	-545.04883	358.00192	485.59885	-510.23889				357.36163	287.01593	-515.30945	305.71365	344.49869	-549.24731	300.18994	262.40536	-545.72186	312.02396	57.012306	-476.54013				272.48318	56.246696	-437.0668	290.4472	66.649567	-565.84094	260.39047	49.316246	-615.0249				335.2291	18.578899	-604.35309
913	4.56	99.001724	859.95074	-470.70306	359.00153	884.57318	-476.30554				262.66815	917.23236	-278.77997	82.82444	650.65796	-475.55725	67.838326	720.10522	-450.04446	65.221504	581.49078	-438.08389	84.896111	423.4101	-406.28699				84.654198	310.63525	-245.32086	130.13983	314.94199	-349.92355	113.28125	264.57504	-253.52991	126.67004	205.79611	-72.252045				182.63922	245.68741	-54.017105	153.62558	131.04497	-105.57407	191.77722	74.404922	-95.986618				115.15002	69.048187	-68.775345	391.77289	623.77344	-515.55023	379.33624	754.98645	-508.99118	346.80603	675.50085	-549.4104	358.66968	485.48581	-513.00293				357.75946	286.74136	-516.75031	306.19	344.08173	-551.04675	300.53387	261.9877	-546.94629	312.17502	57.0429	-476.52136				272.5513	56.338295	-437.09091	290.55966	66.617744	-565.84003	260.46542	49.306557	-615.02295				335.32364	18.548805	-604.354
914	4.565	99.448402	860.62512	-476.60641	359.44794	885.33008	-481.98456				263.01773	918.20386	-284.5477	83.441254	652.32416	-484.03885	68.282455	721.23737	-457.24234	65.301025	582.69507	-447.85416	84.945374	424.22775	-418.53632				85.120415	312.24054	-257.55249	130.52223	315.97305	-362.33826	113.85899	266.18823	-265.53021	127.5768	208.72115	-83.937492				183.85266	248.31738	-65.722946	154.06378	133.7576	-117.27985	191.72302	76.732086	-107.86201				115.09494	72.071701	-80.550697	392.45398	623.70795	-519.24915	379.93881	755.091	-513.76636	347.60172	675.18433	-553.68384	359.33917	485.37137	-515.62054				358.17371	286.47537	-518.07245	306.70911	343.67969	-552.75006	300.92218	261.5856	-548.10999	312.31726	57.077324	-476.50363				272.6058	56.435059	-437.12228	290.67648	66.585129	-565.84106	260.54675	49.296577	-615.02643				335.42017	18.514156	-604.35034
